<?xml version="1.0" encoding="UTF-8"?>
<svg id="Camada_2" data-name="Camada 2" xmlns="http://www.w3.org/2000/svg" viewBox="0 0 905.99 794.92">
  <defs>
    <style>
      .cls-1 {
        fill: #2c57aa;
      }
    </style>
  </defs>
  <g id="Camada_1-2" data-name="Camada 1">
    <path class="cls-1" d="M610.54,474.74c-20.17,48.44-58.4,81.84-108.96,92.42-30.94,6.48-62,6.73-93.11.84-96.44-18.27-130.1-108.63-138.01-198.43l-31.8-.74c-16.6-.39-26.18-15.13-25.81-30.65.35-14.78,8.09-26.96,23.21-29.9,11.4-2.22,25.96-3.38,37.19.41l38.05,12.85c2.44,32.86,31.02,54.82,62.25,51.84,32.69-3.12,55.16-32.68,50.41-65.8-3.49-24.34-21.8-42.89-43.74-47.38-24.99-5.12-48.81,6.53-61.34,28.93l-50.04-12.32c5.4-48.47,31.86-96.31,59.57-135.2,36.63-51.43,78.31-97.3,124.59-140.34,2.7-2.51,8.57-.93,11.06,1.53,56.93,56.21,110.59,119.87,146.46,191.63,13.86,27.73,23.72,56.06,27.66,87.61l-51.92,11.23c-8.82-19.59-26-31.9-45.03-34.4-20.78-2.73-40.94,5.91-53.69,22.95-11.04,14.75-15.09,32.76-9.61,51.58,4.39,15.05,17.06,29.69,34.29,36.38,33.49,13.01,69.86-7.64,77.97-42.8l39.3-14.88c12.78-4.84,28.3-3.75,40.95.86,11.65,4.24,17.51,15.07,18.47,27.04,1.3,16.26-9.26,32.1-26.26,32.72l-27.31,1c-5.2,34.34-11.06,68.03-24.79,101.02ZM502.17,431.48l-54.94-10.13c-4.75-.88-7.59-6.19-6.59-11.27l31.72-160.54c1.23-6.23-3.14-12.34-7.03-13.99-4-1.7-13.11.52-14.17,5.99l-32.4,167.07c-2.8,14.43,4.21,29.21,18.69,31.98l60.98,11.66c3.96.76,9.57-6.42,10.02-9.87.4-3.1-2.66-10.24-6.28-10.91Z"/>
    <g>
      <path class="cls-1" d="M454.36,761.02l-.43-57.86c-.06-8.55-6.25-15.08-14.2-15.34-6.39-.22-16.06,5.15-16.15,13.45l-.7,59.45-24.37.94c-2.38.09-5.46-2.91-5.46-5.42v-88.34c0-1.67,2.56-5.57,4.17-5.55l19.2.23c1.74,1.02,3.06,5.78,3.52,8.93,14.74-15.73,41.4-15.34,55.09,1.44,14.45-13.76,35.06-17.05,51.71-7.17,10.17,6.04,16.34,17.97,16.39,30.17l.25,64.65-28.73.41-.53-59.26c-.08-8.68-8.08-14.01-15.42-13.82-7.92.21-15.36,6.37-15.37,15.13l-.02,53.31c0,1.83-3.14,5.2-4.84,5.16l-24.09-.51Z"/>
      <path class="cls-1" d="M96.74,730.87c-18.88,34.88-58.99,31.42-96.62,30.28l-.12-119.24,42.31-.61c22.63-.33,43.73,12.21,54.57,32.11,9.68,17.78,10.14,38.46-.14,57.46ZM47.01,731.73c15.8-2.17,26.71-15.26,26.67-29.43s-9.79-28.07-24.91-30.82c-5.68-1.03-11.7-.86-18.44-.87l-.04,61.73,16.71-.6Z"/>
      <path class="cls-1" d="M580.49,794.66l-21.16.26c-2.3.03-5.16-2.87-5.16-5.19l-.03-121.6c0-3.23,3.36-6.04,6.61-5.89l16.43.78c2.6.12,3.83,7.8,3.69,10.51,7.29-8.5,17.32-13.22,28.93-13,30.16.58,51.49,26.63,48.42,56.41-2.83,27.39-24.6,47.62-52.18,45.82-8.7-.57-15.67-3.96-21.89-11.39v38.63c.5-.05-2.56,4.65-3.65,4.66ZM600.14,688.77c-13.68,3.5-20.02,17.11-16.72,28.9s15.91,19.05,27.71,16.37c12.74-2.9,19.92-15.95,17.1-28.23-2.78-12.1-14.79-20.44-28.09-17.04Z"/>
      <path class="cls-1" d="M878.24,662.75l23.45-.44c.98-.02,3.8.85,3.87,1.7l.43,5.04-37.21,91.76-20.39.23-15.83-38.04-15.79,37.57c-6.79,1.08-13,1.18-20.05.08l-37.28-93.07c-.82-2.05,3.3-5.47,5.22-5.41l24.66.75,17.8,52.44,18.53-52.61,23.25-.52c1.15-.03,3.89.96,4.58,1.8s.76,3.61.35,4.67l-8.07,21.08,12.44,26.12,20.05-53.16Z"/>
      <path class="cls-1" d="M726.13,761.55c-22.18,5.33-43.25-3.26-55.11-20.37-12.45-17.96-12.13-41.7.52-59.31,12.17-16.94,34.01-24.72,55.15-19.24,23.18,6,38.51,26.03,38.22,50.13-.28,23.52-15.3,43.15-38.79,48.8ZM735.18,710.66c-.45-13.48-10.55-22.68-22.61-22.39-11.41.28-20.81,9.64-21.48,21.66-.75,13.59,8.52,24.27,21.45,24.54,12.47.27,23.12-9.53,22.64-23.82Z"/>
      <polygon class="cls-1" points="345.51 732.34 345.9 761.32 269.59 761.43 269.5 641.67 299.6 641.63 299.77 732.33 345.51 732.34"/>
      <path class="cls-1" d="M140.97,758.63c-3.2,2.87-8.73,3.28-12.75,2.94l-16.39-1.37-.21-92.4c0-1.86,2.8-5.37,4.8-5.39l15.17-.11c1.77-.01,5.09,1.25,5.43,2.66l1.71,7.03c13.1-16.21,34.89-14.89,51.95.29l-11.55,19.76c-3.33,5.7-12.87-8.55-26.89-2.99-4.37,1.73-10.9,7.4-10.94,13.9l-.33,55.67Z"/>
      <path class="cls-1" d="M382.65,760.42l-24.7,1.22c-2.13.11-5.18-3.26-5.18-5.58l-.19-88.11c0-2.6,2.99-5.61,5.09-5.61l19.03-.06c2.55,0,5.93,2.5,5.94,5.53v92.61Z"/>
      <path class="cls-1" d="M362.68,622.03c7.97-3.15,16.6,1.2,19.4,8.89,2.67,7.35-.77,15.84-9.07,19.02-6.64,2.55-15.08-.48-18.54-7.26-3.97-7.79-.27-17.3,8.21-20.65Z"/>
      <path class="cls-1" d="M177.57,734.2c9.14-.84,14.96,6.2,15.46,13.27.59,8.32-5.6,14.51-12.46,15.37-8.69,1.09-15.03-4.88-16.01-11.83-1.18-8.36,4.21-15.99,13.01-16.8Z"/>
    </g>
  </g>
</svg>